<svg xmlns="http://www.w3.org/2000/svg" viewBox="0 0 100 100" width="100" height="100">
  <defs>
    <linearGradient id="sky" x1="0" y1="0" x2="0" y2="1">
      <stop offset="0%" stop-color="#1a237e"/>
      <stop offset="100%" stop-color="#42a5f5"/>
    </linearGradient>
  </defs>
  <!-- Sky background -->
  <rect width="100" height="100" rx="12" fill="url(#sky)"/>
  <!-- Cloud -->
  <ellipse cx="62" cy="38" rx="18" ry="11" fill="white" opacity="0.9"/>
  <ellipse cx="72" cy="32" rx="14" ry="10" fill="white" opacity="0.9"/>
  <ellipse cx="50" cy="40" rx="12" ry="8" fill="white" opacity="0.85"/>
  <!-- Sun rays -->
  <circle cx="28" cy="28" r="10" fill="#ffeb3b" opacity="0.95"/>
  <line x1="28" y1="10" x2="28" y2="6" stroke="#ffeb3b" stroke-width="2.5" stroke-linecap="round"/>
  <line x1="28" y1="46" x2="28" y2="50" stroke="#ffeb3b" stroke-width="2.5" stroke-linecap="round"/>
  <line x1="10" y1="28" x2="6" y2="28" stroke="#ffeb3b" stroke-width="2.5" stroke-linecap="round"/>
  <line x1="46" y1="28" x2="50" y2="28" stroke="#ffeb3b" stroke-width="2.5" stroke-linecap="round"/>
  <line x1="16" y1="16" x2="13" y2="13" stroke="#ffeb3b" stroke-width="2.5" stroke-linecap="round"/>
  <line x1="40" y1="40" x2="43" y2="43" stroke="#ffeb3b" stroke-width="2.5" stroke-linecap="round"/>
  <line x1="40" y1="16" x2="43" y2="13" stroke="#ffeb3b" stroke-width="2.5" stroke-linecap="round"/>
  <line x1="16" y1="40" x2="13" y2="43" stroke="#ffeb3b" stroke-width="2.5" stroke-linecap="round"/>
  <!-- Rain drops -->
  <line x1="45" y1="55" x2="42" y2="65" stroke="#42a5f5" stroke-width="2" stroke-linecap="round"/>
  <line x1="58" y1="55" x2="55" y2="65" stroke="#42a5f5" stroke-width="2" stroke-linecap="round"/>
  <line x1="70" y1="55" x2="67" y2="65" stroke="#42a5f5" stroke-width="2" stroke-linecap="round"/>
  <line x1="50" y1="62" x2="47" y2="72" stroke="#64b5f6" stroke-width="1.5" stroke-linecap="round"/>
  <line x1="63" y1="62" x2="60" y2="72" stroke="#64b5f6" stroke-width="1.5" stroke-linecap="round"/>
  <line x1="76" y1="62" x2="73" y2="72" stroke="#64b5f6" stroke-width="1.5" stroke-linecap="round"/>
  <!-- Ground -->
  <rect x="0" y="80" width="100" height="20" rx="0" fill="#2e7d32" opacity="0.8"/>
  <!-- House -->
  <rect x="38" y="65" width="24" height="17" fill="#d7ccc8"/>
  <polygon points="34,65 66,65 52,54" fill="#c62828"/>
  <rect x="43" y="70" width="7" height="6" fill="#80deea"/>
  <rect x="55" y="70" width="7" height="6" fill="#80deea"/>
  <rect x="48" y="76" width="6" height="6" fill="#6d4c41"/>
</svg>
